%TF.GenerationSoftware,KiCad,Pcbnew,(6.0.4)*%
%TF.CreationDate,2022-07-11T12:49:24+03:00*%
%TF.ProjectId,V1_mini_mcp2515_based,56315f6d-696e-4695-9f6d-637032353135,rev?*%
%TF.SameCoordinates,Original*%
%TF.FileFunction,Legend,Top*%
%TF.FilePolarity,Positive*%
%FSLAX46Y46*%
G04 Gerber Fmt 4.6, Leading zero omitted, Abs format (unit mm)*
G04 Created by KiCad (PCBNEW (6.0.4)) date 2022-07-11 12:49:24*
%MOMM*%
%LPD*%
G01*
G04 APERTURE LIST*
%ADD10C,0.150000*%
%ADD11C,0.254000*%
%ADD12C,0.120000*%
%ADD13C,0.200000*%
%ADD14R,1.700000X1.700000*%
%ADD15O,1.400000X1.400000*%
%ADD16C,1.400000*%
%ADD17O,1.700000X1.700000*%
%ADD18C,1.700000*%
%ADD19R,3.960000X1.980000*%
%ADD20O,3.960000X1.980000*%
%ADD21R,1.159000X1.159000*%
%ADD22C,1.159000*%
%ADD23C,1.600000*%
%ADD24O,3.500000X3.500000*%
%ADD25R,2.000000X1.905000*%
%ADD26O,2.000000X1.905000*%
G04 APERTURE END LIST*
D10*
%TO.C,J11*%
X73612476Y-98258380D02*
X73612476Y-98972666D01*
X73564857Y-99115523D01*
X73469619Y-99210761D01*
X73326761Y-99258380D01*
X73231523Y-99258380D01*
X74612476Y-99258380D02*
X74041047Y-99258380D01*
X74326761Y-99258380D02*
X74326761Y-98258380D01*
X74231523Y-98401238D01*
X74136285Y-98496476D01*
X74041047Y-98544095D01*
X75564857Y-99258380D02*
X74993428Y-99258380D01*
X75279142Y-99258380D02*
X75279142Y-98258380D01*
X75183904Y-98401238D01*
X75088666Y-98496476D01*
X74993428Y-98544095D01*
%TO.C,J10*%
X85042476Y-130008380D02*
X85042476Y-130722666D01*
X84994857Y-130865523D01*
X84899619Y-130960761D01*
X84756761Y-131008380D01*
X84661523Y-131008380D01*
X86042476Y-131008380D02*
X85471047Y-131008380D01*
X85756761Y-131008380D02*
X85756761Y-130008380D01*
X85661523Y-130151238D01*
X85566285Y-130246476D01*
X85471047Y-130294095D01*
X86661523Y-130008380D02*
X86756761Y-130008380D01*
X86852000Y-130056000D01*
X86899619Y-130103619D01*
X86947238Y-130198857D01*
X86994857Y-130389333D01*
X86994857Y-130627428D01*
X86947238Y-130817904D01*
X86899619Y-130913142D01*
X86852000Y-130960761D01*
X86756761Y-131008380D01*
X86661523Y-131008380D01*
X86566285Y-130960761D01*
X86518666Y-130913142D01*
X86471047Y-130817904D01*
X86423428Y-130627428D01*
X86423428Y-130389333D01*
X86471047Y-130198857D01*
X86518666Y-130103619D01*
X86566285Y-130056000D01*
X86661523Y-130008380D01*
%TO.C,R9*%
X79589333Y-110434380D02*
X79256000Y-109958190D01*
X79017904Y-110434380D02*
X79017904Y-109434380D01*
X79398857Y-109434380D01*
X79494095Y-109482000D01*
X79541714Y-109529619D01*
X79589333Y-109624857D01*
X79589333Y-109767714D01*
X79541714Y-109862952D01*
X79494095Y-109910571D01*
X79398857Y-109958190D01*
X79017904Y-109958190D01*
X80065523Y-110434380D02*
X80256000Y-110434380D01*
X80351238Y-110386761D01*
X80398857Y-110339142D01*
X80494095Y-110196285D01*
X80541714Y-110005809D01*
X80541714Y-109624857D01*
X80494095Y-109529619D01*
X80446476Y-109482000D01*
X80351238Y-109434380D01*
X80160761Y-109434380D01*
X80065523Y-109482000D01*
X80017904Y-109529619D01*
X79970285Y-109624857D01*
X79970285Y-109862952D01*
X80017904Y-109958190D01*
X80065523Y-110005809D01*
X80160761Y-110053428D01*
X80351238Y-110053428D01*
X80446476Y-110005809D01*
X80494095Y-109958190D01*
X80541714Y-109862952D01*
%TO.C,R12*%
X81155142Y-127846380D02*
X80821809Y-127370190D01*
X80583714Y-127846380D02*
X80583714Y-126846380D01*
X80964666Y-126846380D01*
X81059904Y-126894000D01*
X81107523Y-126941619D01*
X81155142Y-127036857D01*
X81155142Y-127179714D01*
X81107523Y-127274952D01*
X81059904Y-127322571D01*
X80964666Y-127370190D01*
X80583714Y-127370190D01*
X82107523Y-127846380D02*
X81536095Y-127846380D01*
X81821809Y-127846380D02*
X81821809Y-126846380D01*
X81726571Y-126989238D01*
X81631333Y-127084476D01*
X81536095Y-127132095D01*
X82488476Y-126941619D02*
X82536095Y-126894000D01*
X82631333Y-126846380D01*
X82869428Y-126846380D01*
X82964666Y-126894000D01*
X83012285Y-126941619D01*
X83059904Y-127036857D01*
X83059904Y-127132095D01*
X83012285Y-127274952D01*
X82440857Y-127846380D01*
X83059904Y-127846380D01*
%TO.C,R11*%
X81145142Y-124912380D02*
X80811809Y-124436190D01*
X80573714Y-124912380D02*
X80573714Y-123912380D01*
X80954666Y-123912380D01*
X81049904Y-123960000D01*
X81097523Y-124007619D01*
X81145142Y-124102857D01*
X81145142Y-124245714D01*
X81097523Y-124340952D01*
X81049904Y-124388571D01*
X80954666Y-124436190D01*
X80573714Y-124436190D01*
X82097523Y-124912380D02*
X81526095Y-124912380D01*
X81811809Y-124912380D02*
X81811809Y-123912380D01*
X81716571Y-124055238D01*
X81621333Y-124150476D01*
X81526095Y-124198095D01*
X83049904Y-124912380D02*
X82478476Y-124912380D01*
X82764190Y-124912380D02*
X82764190Y-123912380D01*
X82668952Y-124055238D01*
X82573714Y-124150476D01*
X82478476Y-124198095D01*
%TO.C,R10*%
X78097142Y-117180380D02*
X77763809Y-116704190D01*
X77525714Y-117180380D02*
X77525714Y-116180380D01*
X77906666Y-116180380D01*
X78001904Y-116228000D01*
X78049523Y-116275619D01*
X78097142Y-116370857D01*
X78097142Y-116513714D01*
X78049523Y-116608952D01*
X78001904Y-116656571D01*
X77906666Y-116704190D01*
X77525714Y-116704190D01*
X79049523Y-117180380D02*
X78478095Y-117180380D01*
X78763809Y-117180380D02*
X78763809Y-116180380D01*
X78668571Y-116323238D01*
X78573333Y-116418476D01*
X78478095Y-116466095D01*
X79668571Y-116180380D02*
X79763809Y-116180380D01*
X79859047Y-116228000D01*
X79906666Y-116275619D01*
X79954285Y-116370857D01*
X80001904Y-116561333D01*
X80001904Y-116799428D01*
X79954285Y-116989904D01*
X79906666Y-117085142D01*
X79859047Y-117132761D01*
X79763809Y-117180380D01*
X79668571Y-117180380D01*
X79573333Y-117132761D01*
X79525714Y-117085142D01*
X79478095Y-116989904D01*
X79430476Y-116799428D01*
X79430476Y-116561333D01*
X79478095Y-116370857D01*
X79525714Y-116275619D01*
X79573333Y-116228000D01*
X79668571Y-116180380D01*
%TO.C,R8*%
X84780380Y-112434666D02*
X84304190Y-112768000D01*
X84780380Y-113006095D02*
X83780380Y-113006095D01*
X83780380Y-112625142D01*
X83828000Y-112529904D01*
X83875619Y-112482285D01*
X83970857Y-112434666D01*
X84113714Y-112434666D01*
X84208952Y-112482285D01*
X84256571Y-112529904D01*
X84304190Y-112625142D01*
X84304190Y-113006095D01*
X84208952Y-111863238D02*
X84161333Y-111958476D01*
X84113714Y-112006095D01*
X84018476Y-112053714D01*
X83970857Y-112053714D01*
X83875619Y-112006095D01*
X83828000Y-111958476D01*
X83780380Y-111863238D01*
X83780380Y-111672761D01*
X83828000Y-111577523D01*
X83875619Y-111529904D01*
X83970857Y-111482285D01*
X84018476Y-111482285D01*
X84113714Y-111529904D01*
X84161333Y-111577523D01*
X84208952Y-111672761D01*
X84208952Y-111863238D01*
X84256571Y-111958476D01*
X84304190Y-112006095D01*
X84399428Y-112053714D01*
X84589904Y-112053714D01*
X84685142Y-112006095D01*
X84732761Y-111958476D01*
X84780380Y-111863238D01*
X84780380Y-111672761D01*
X84732761Y-111577523D01*
X84685142Y-111529904D01*
X84589904Y-111482285D01*
X84399428Y-111482285D01*
X84304190Y-111529904D01*
X84256571Y-111577523D01*
X84208952Y-111672761D01*
%TO.C,R7*%
X81367333Y-107132380D02*
X81034000Y-106656190D01*
X80795904Y-107132380D02*
X80795904Y-106132380D01*
X81176857Y-106132380D01*
X81272095Y-106180000D01*
X81319714Y-106227619D01*
X81367333Y-106322857D01*
X81367333Y-106465714D01*
X81319714Y-106560952D01*
X81272095Y-106608571D01*
X81176857Y-106656190D01*
X80795904Y-106656190D01*
X81700666Y-106132380D02*
X82367333Y-106132380D01*
X81938761Y-107132380D01*
%TO.C,JP1*%
X68000666Y-127722380D02*
X68000666Y-128436666D01*
X67953047Y-128579523D01*
X67857809Y-128674761D01*
X67714952Y-128722380D01*
X67619714Y-128722380D01*
X68476857Y-128722380D02*
X68476857Y-127722380D01*
X68857809Y-127722380D01*
X68953047Y-127770000D01*
X69000666Y-127817619D01*
X69048285Y-127912857D01*
X69048285Y-128055714D01*
X69000666Y-128150952D01*
X68953047Y-128198571D01*
X68857809Y-128246190D01*
X68476857Y-128246190D01*
X70000666Y-128722380D02*
X69429238Y-128722380D01*
X69714952Y-128722380D02*
X69714952Y-127722380D01*
X69619714Y-127865238D01*
X69524476Y-127960476D01*
X69429238Y-128008095D01*
%TO.C,J14*%
X88090476Y-96944380D02*
X88090476Y-97658666D01*
X88042857Y-97801523D01*
X87947619Y-97896761D01*
X87804761Y-97944380D01*
X87709523Y-97944380D01*
X89090476Y-97944380D02*
X88519047Y-97944380D01*
X88804761Y-97944380D02*
X88804761Y-96944380D01*
X88709523Y-97087238D01*
X88614285Y-97182476D01*
X88519047Y-97230095D01*
X89947619Y-97277714D02*
X89947619Y-97944380D01*
X89709523Y-96896761D02*
X89471428Y-97611047D01*
X90090476Y-97611047D01*
%TO.C,J8*%
X66791380Y-99393333D02*
X67505666Y-99393333D01*
X67648523Y-99440952D01*
X67743761Y-99536190D01*
X67791380Y-99679047D01*
X67791380Y-99774285D01*
X67219952Y-98774285D02*
X67172333Y-98869523D01*
X67124714Y-98917142D01*
X67029476Y-98964761D01*
X66981857Y-98964761D01*
X66886619Y-98917142D01*
X66839000Y-98869523D01*
X66791380Y-98774285D01*
X66791380Y-98583809D01*
X66839000Y-98488571D01*
X66886619Y-98440952D01*
X66981857Y-98393333D01*
X67029476Y-98393333D01*
X67124714Y-98440952D01*
X67172333Y-98488571D01*
X67219952Y-98583809D01*
X67219952Y-98774285D01*
X67267571Y-98869523D01*
X67315190Y-98917142D01*
X67410428Y-98964761D01*
X67600904Y-98964761D01*
X67696142Y-98917142D01*
X67743761Y-98869523D01*
X67791380Y-98774285D01*
X67791380Y-98583809D01*
X67743761Y-98488571D01*
X67696142Y-98440952D01*
X67600904Y-98393333D01*
X67410428Y-98393333D01*
X67315190Y-98440952D01*
X67267571Y-98488571D01*
X67219952Y-98583809D01*
%TO.C,J6*%
X63420666Y-118578380D02*
X63420666Y-119292666D01*
X63373047Y-119435523D01*
X63277809Y-119530761D01*
X63134952Y-119578380D01*
X63039714Y-119578380D01*
X64325428Y-118578380D02*
X64134952Y-118578380D01*
X64039714Y-118626000D01*
X63992095Y-118673619D01*
X63896857Y-118816476D01*
X63849238Y-119006952D01*
X63849238Y-119387904D01*
X63896857Y-119483142D01*
X63944476Y-119530761D01*
X64039714Y-119578380D01*
X64230190Y-119578380D01*
X64325428Y-119530761D01*
X64373047Y-119483142D01*
X64420666Y-119387904D01*
X64420666Y-119149809D01*
X64373047Y-119054571D01*
X64325428Y-119006952D01*
X64230190Y-118959333D01*
X64039714Y-118959333D01*
X63944476Y-119006952D01*
X63896857Y-119054571D01*
X63849238Y-119149809D01*
%TO.C,J4*%
X47418666Y-111422380D02*
X47418666Y-112136666D01*
X47371047Y-112279523D01*
X47275809Y-112374761D01*
X47132952Y-112422380D01*
X47037714Y-112422380D01*
X48323428Y-111755714D02*
X48323428Y-112422380D01*
X48085333Y-111374761D02*
X47847238Y-112089047D01*
X48466285Y-112089047D01*
%TO.C,J3*%
X42084666Y-114724380D02*
X42084666Y-115438666D01*
X42037047Y-115581523D01*
X41941809Y-115676761D01*
X41798952Y-115724380D01*
X41703714Y-115724380D01*
X42465619Y-114724380D02*
X43084666Y-114724380D01*
X42751333Y-115105333D01*
X42894190Y-115105333D01*
X42989428Y-115152952D01*
X43037047Y-115200571D01*
X43084666Y-115295809D01*
X43084666Y-115533904D01*
X43037047Y-115629142D01*
X42989428Y-115676761D01*
X42894190Y-115724380D01*
X42608476Y-115724380D01*
X42513238Y-115676761D01*
X42465619Y-115629142D01*
%TO.C,J12*%
X48860380Y-135824523D02*
X49574666Y-135824523D01*
X49717523Y-135872142D01*
X49812761Y-135967380D01*
X49860380Y-136110238D01*
X49860380Y-136205476D01*
X49860380Y-134824523D02*
X49860380Y-135395952D01*
X49860380Y-135110238D02*
X48860380Y-135110238D01*
X49003238Y-135205476D01*
X49098476Y-135300714D01*
X49146095Y-135395952D01*
X48955619Y-134443571D02*
X48908000Y-134395952D01*
X48860380Y-134300714D01*
X48860380Y-134062619D01*
X48908000Y-133967380D01*
X48955619Y-133919761D01*
X49050857Y-133872142D01*
X49146095Y-133872142D01*
X49288952Y-133919761D01*
X49860380Y-134491190D01*
X49860380Y-133872142D01*
D11*
%TO.C,IC1*%
X54735238Y-117356523D02*
X54735238Y-116086523D01*
X56065714Y-117235571D02*
X56005238Y-117296047D01*
X55823809Y-117356523D01*
X55702857Y-117356523D01*
X55521428Y-117296047D01*
X55400476Y-117175095D01*
X55340000Y-117054142D01*
X55279523Y-116812238D01*
X55279523Y-116630809D01*
X55340000Y-116388904D01*
X55400476Y-116267952D01*
X55521428Y-116147000D01*
X55702857Y-116086523D01*
X55823809Y-116086523D01*
X56005238Y-116147000D01*
X56065714Y-116207476D01*
X57275238Y-117356523D02*
X56549523Y-117356523D01*
X56912380Y-117356523D02*
X56912380Y-116086523D01*
X56791428Y-116267952D01*
X56670476Y-116388904D01*
X56549523Y-116449380D01*
D10*
%TO.C,R4*%
X60539333Y-94178380D02*
X60206000Y-93702190D01*
X59967904Y-94178380D02*
X59967904Y-93178380D01*
X60348857Y-93178380D01*
X60444095Y-93226000D01*
X60491714Y-93273619D01*
X60539333Y-93368857D01*
X60539333Y-93511714D01*
X60491714Y-93606952D01*
X60444095Y-93654571D01*
X60348857Y-93702190D01*
X59967904Y-93702190D01*
X61396476Y-93511714D02*
X61396476Y-94178380D01*
X61158380Y-93130761D02*
X60920285Y-93845047D01*
X61539333Y-93845047D01*
%TO.C,J9*%
X68500666Y-108164380D02*
X68500666Y-108878666D01*
X68453047Y-109021523D01*
X68357809Y-109116761D01*
X68214952Y-109164380D01*
X68119714Y-109164380D01*
X69024476Y-109164380D02*
X69214952Y-109164380D01*
X69310190Y-109116761D01*
X69357809Y-109069142D01*
X69453047Y-108926285D01*
X69500666Y-108735809D01*
X69500666Y-108354857D01*
X69453047Y-108259619D01*
X69405428Y-108212000D01*
X69310190Y-108164380D01*
X69119714Y-108164380D01*
X69024476Y-108212000D01*
X68976857Y-108259619D01*
X68929238Y-108354857D01*
X68929238Y-108592952D01*
X68976857Y-108688190D01*
X69024476Y-108735809D01*
X69119714Y-108783428D01*
X69310190Y-108783428D01*
X69405428Y-108735809D01*
X69453047Y-108688190D01*
X69500666Y-108592952D01*
%TO.C,C2*%
X48601333Y-130237142D02*
X48553714Y-130284761D01*
X48410857Y-130332380D01*
X48315619Y-130332380D01*
X48172761Y-130284761D01*
X48077523Y-130189523D01*
X48029904Y-130094285D01*
X47982285Y-129903809D01*
X47982285Y-129760952D01*
X48029904Y-129570476D01*
X48077523Y-129475238D01*
X48172761Y-129380000D01*
X48315619Y-129332380D01*
X48410857Y-129332380D01*
X48553714Y-129380000D01*
X48601333Y-129427619D01*
X48982285Y-129427619D02*
X49029904Y-129380000D01*
X49125142Y-129332380D01*
X49363238Y-129332380D01*
X49458476Y-129380000D01*
X49506095Y-129427619D01*
X49553714Y-129522857D01*
X49553714Y-129618095D01*
X49506095Y-129760952D01*
X48934666Y-130332380D01*
X49553714Y-130332380D01*
%TO.C,R5*%
X81113333Y-118816380D02*
X80780000Y-118340190D01*
X80541904Y-118816380D02*
X80541904Y-117816380D01*
X80922857Y-117816380D01*
X81018095Y-117864000D01*
X81065714Y-117911619D01*
X81113333Y-118006857D01*
X81113333Y-118149714D01*
X81065714Y-118244952D01*
X81018095Y-118292571D01*
X80922857Y-118340190D01*
X80541904Y-118340190D01*
X82018095Y-117816380D02*
X81541904Y-117816380D01*
X81494285Y-118292571D01*
X81541904Y-118244952D01*
X81637142Y-118197333D01*
X81875238Y-118197333D01*
X81970476Y-118244952D01*
X82018095Y-118292571D01*
X82065714Y-118387809D01*
X82065714Y-118625904D01*
X82018095Y-118721142D01*
X81970476Y-118768761D01*
X81875238Y-118816380D01*
X81637142Y-118816380D01*
X81541904Y-118768761D01*
X81494285Y-118721142D01*
%TO.C,R3*%
X60539333Y-90876380D02*
X60206000Y-90400190D01*
X59967904Y-90876380D02*
X59967904Y-89876380D01*
X60348857Y-89876380D01*
X60444095Y-89924000D01*
X60491714Y-89971619D01*
X60539333Y-90066857D01*
X60539333Y-90209714D01*
X60491714Y-90304952D01*
X60444095Y-90352571D01*
X60348857Y-90400190D01*
X59967904Y-90400190D01*
X60872666Y-89876380D02*
X61491714Y-89876380D01*
X61158380Y-90257333D01*
X61301238Y-90257333D01*
X61396476Y-90304952D01*
X61444095Y-90352571D01*
X61491714Y-90447809D01*
X61491714Y-90685904D01*
X61444095Y-90781142D01*
X61396476Y-90828761D01*
X61301238Y-90876380D01*
X61015523Y-90876380D01*
X60920285Y-90828761D01*
X60872666Y-90781142D01*
%TO.C,J2*%
X48860380Y-100775333D02*
X49574666Y-100775333D01*
X49717523Y-100822952D01*
X49812761Y-100918190D01*
X49860380Y-101061047D01*
X49860380Y-101156285D01*
X48955619Y-100346761D02*
X48908000Y-100299142D01*
X48860380Y-100203904D01*
X48860380Y-99965809D01*
X48908000Y-99870571D01*
X48955619Y-99822952D01*
X49050857Y-99775333D01*
X49146095Y-99775333D01*
X49288952Y-99822952D01*
X49860380Y-100394380D01*
X49860380Y-99775333D01*
%TO.C,R1*%
X40473333Y-123388380D02*
X40140000Y-122912190D01*
X39901904Y-123388380D02*
X39901904Y-122388380D01*
X40282857Y-122388380D01*
X40378095Y-122436000D01*
X40425714Y-122483619D01*
X40473333Y-122578857D01*
X40473333Y-122721714D01*
X40425714Y-122816952D01*
X40378095Y-122864571D01*
X40282857Y-122912190D01*
X39901904Y-122912190D01*
X41425714Y-123388380D02*
X40854285Y-123388380D01*
X41140000Y-123388380D02*
X41140000Y-122388380D01*
X41044761Y-122531238D01*
X40949523Y-122626476D01*
X40854285Y-122674095D01*
%TO.C,R6*%
X81113333Y-121864380D02*
X80780000Y-121388190D01*
X80541904Y-121864380D02*
X80541904Y-120864380D01*
X80922857Y-120864380D01*
X81018095Y-120912000D01*
X81065714Y-120959619D01*
X81113333Y-121054857D01*
X81113333Y-121197714D01*
X81065714Y-121292952D01*
X81018095Y-121340571D01*
X80922857Y-121388190D01*
X80541904Y-121388190D01*
X81970476Y-120864380D02*
X81780000Y-120864380D01*
X81684761Y-120912000D01*
X81637142Y-120959619D01*
X81541904Y-121102476D01*
X81494285Y-121292952D01*
X81494285Y-121673904D01*
X81541904Y-121769142D01*
X81589523Y-121816761D01*
X81684761Y-121864380D01*
X81875238Y-121864380D01*
X81970476Y-121816761D01*
X82018095Y-121769142D01*
X82065714Y-121673904D01*
X82065714Y-121435809D01*
X82018095Y-121340571D01*
X81970476Y-121292952D01*
X81875238Y-121245333D01*
X81684761Y-121245333D01*
X81589523Y-121292952D01*
X81541904Y-121340571D01*
X81494285Y-121435809D01*
%TO.C,C1*%
X62063333Y-103481142D02*
X62015714Y-103528761D01*
X61872857Y-103576380D01*
X61777619Y-103576380D01*
X61634761Y-103528761D01*
X61539523Y-103433523D01*
X61491904Y-103338285D01*
X61444285Y-103147809D01*
X61444285Y-103004952D01*
X61491904Y-102814476D01*
X61539523Y-102719238D01*
X61634761Y-102624000D01*
X61777619Y-102576380D01*
X61872857Y-102576380D01*
X62015714Y-102624000D01*
X62063333Y-102671619D01*
X63015714Y-103576380D02*
X62444285Y-103576380D01*
X62730000Y-103576380D02*
X62730000Y-102576380D01*
X62634761Y-102719238D01*
X62539523Y-102814476D01*
X62444285Y-102862095D01*
%TO.C,Y1*%
X39401809Y-126468190D02*
X39401809Y-126944380D01*
X39068476Y-125944380D02*
X39401809Y-126468190D01*
X39735142Y-125944380D01*
X40592285Y-126944380D02*
X40020857Y-126944380D01*
X40306571Y-126944380D02*
X40306571Y-125944380D01*
X40211333Y-126087238D01*
X40116095Y-126182476D01*
X40020857Y-126230095D01*
%TO.C,J7*%
X63674666Y-108926380D02*
X63674666Y-109640666D01*
X63627047Y-109783523D01*
X63531809Y-109878761D01*
X63388952Y-109926380D01*
X63293714Y-109926380D01*
X64055619Y-108926380D02*
X64722285Y-108926380D01*
X64293714Y-109926380D01*
%TO.C,R2*%
X76287333Y-133436380D02*
X75954000Y-132960190D01*
X75715904Y-133436380D02*
X75715904Y-132436380D01*
X76096857Y-132436380D01*
X76192095Y-132484000D01*
X76239714Y-132531619D01*
X76287333Y-132626857D01*
X76287333Y-132769714D01*
X76239714Y-132864952D01*
X76192095Y-132912571D01*
X76096857Y-132960190D01*
X75715904Y-132960190D01*
X76668285Y-132531619D02*
X76715904Y-132484000D01*
X76811142Y-132436380D01*
X77049238Y-132436380D01*
X77144476Y-132484000D01*
X77192095Y-132531619D01*
X77239714Y-132626857D01*
X77239714Y-132722095D01*
X77192095Y-132864952D01*
X76620666Y-133436380D01*
X77239714Y-133436380D01*
%TO.C,J13*%
X82554380Y-87169523D02*
X83268666Y-87169523D01*
X83411523Y-87217142D01*
X83506761Y-87312380D01*
X83554380Y-87455238D01*
X83554380Y-87550476D01*
X83554380Y-86169523D02*
X83554380Y-86740952D01*
X83554380Y-86455238D02*
X82554380Y-86455238D01*
X82697238Y-86550476D01*
X82792476Y-86645714D01*
X82840095Y-86740952D01*
X82554380Y-85836190D02*
X82554380Y-85217142D01*
X82935333Y-85550476D01*
X82935333Y-85407619D01*
X82982952Y-85312380D01*
X83030571Y-85264761D01*
X83125809Y-85217142D01*
X83363904Y-85217142D01*
X83459142Y-85264761D01*
X83506761Y-85312380D01*
X83554380Y-85407619D01*
X83554380Y-85693333D01*
X83506761Y-85788571D01*
X83459142Y-85836190D01*
%TO.C,C3*%
X53173333Y-147677142D02*
X53125714Y-147724761D01*
X52982857Y-147772380D01*
X52887619Y-147772380D01*
X52744761Y-147724761D01*
X52649523Y-147629523D01*
X52601904Y-147534285D01*
X52554285Y-147343809D01*
X52554285Y-147200952D01*
X52601904Y-147010476D01*
X52649523Y-146915238D01*
X52744761Y-146820000D01*
X52887619Y-146772380D01*
X52982857Y-146772380D01*
X53125714Y-146820000D01*
X53173333Y-146867619D01*
X53506666Y-146772380D02*
X54125714Y-146772380D01*
X53792380Y-147153333D01*
X53935238Y-147153333D01*
X54030476Y-147200952D01*
X54078095Y-147248571D01*
X54125714Y-147343809D01*
X54125714Y-147581904D01*
X54078095Y-147677142D01*
X54030476Y-147724761D01*
X53935238Y-147772380D01*
X53649523Y-147772380D01*
X53554285Y-147724761D01*
X53506666Y-147677142D01*
%TO.C,U1*%
X71254380Y-140715904D02*
X72063904Y-140715904D01*
X72159142Y-140668285D01*
X72206761Y-140620666D01*
X72254380Y-140525428D01*
X72254380Y-140334952D01*
X72206761Y-140239714D01*
X72159142Y-140192095D01*
X72063904Y-140144476D01*
X71254380Y-140144476D01*
X72254380Y-139144476D02*
X72254380Y-139715904D01*
X72254380Y-139430190D02*
X71254380Y-139430190D01*
X71397238Y-139525428D01*
X71492476Y-139620666D01*
X71540095Y-139715904D01*
%TO.C,J1*%
X65448380Y-92535333D02*
X66162666Y-92535333D01*
X66305523Y-92582952D01*
X66400761Y-92678190D01*
X66448380Y-92821047D01*
X66448380Y-92916285D01*
X66448380Y-91535333D02*
X66448380Y-92106761D01*
X66448380Y-91821047D02*
X65448380Y-91821047D01*
X65591238Y-91916285D01*
X65686476Y-92011523D01*
X65734095Y-92106761D01*
D12*
%TO.C,J11*%
X70044000Y-97476000D02*
X71374000Y-97476000D01*
X70044000Y-100076000D02*
X72704000Y-100076000D01*
X70044000Y-100136000D02*
X72704000Y-100136000D01*
X72704000Y-100076000D02*
X72704000Y-100136000D01*
X70044000Y-100076000D02*
X70044000Y-100136000D01*
X70044000Y-98806000D02*
X70044000Y-97476000D01*
%TO.C,J10*%
X81474000Y-129226000D02*
X82804000Y-129226000D01*
X81474000Y-131826000D02*
X84134000Y-131826000D01*
X81474000Y-131886000D02*
X84134000Y-131886000D01*
X84134000Y-131826000D02*
X84134000Y-131886000D01*
X81474000Y-131826000D02*
X81474000Y-131886000D01*
X81474000Y-130556000D02*
X81474000Y-129226000D01*
%TO.C,R9*%
X80660000Y-112680000D02*
X76820000Y-112680000D01*
X80660000Y-110840000D02*
X76820000Y-110840000D01*
%TO.C,R12*%
X74534000Y-128428000D02*
X78374000Y-128428000D01*
X74534000Y-126588000D02*
X78374000Y-126588000D01*
%TO.C,R11*%
X78374000Y-123540000D02*
X74534000Y-123540000D01*
X78374000Y-125380000D02*
X74534000Y-125380000D01*
%TO.C,R10*%
X80660000Y-113888000D02*
X76820000Y-113888000D01*
X80660000Y-115728000D02*
X76820000Y-115728000D01*
%TO.C,R8*%
X83408000Y-114188000D02*
X83408000Y-110348000D01*
X85248000Y-114188000D02*
X85248000Y-110348000D01*
%TO.C,R7*%
X78628000Y-106014000D02*
X74788000Y-106014000D01*
X78628000Y-107854000D02*
X74788000Y-107854000D01*
%TO.C,JP1*%
X67813000Y-126806000D02*
X66483000Y-126806000D01*
X71683000Y-126806000D02*
X71683000Y-124146000D01*
X69083000Y-126806000D02*
X71683000Y-126806000D01*
X69083000Y-126806000D02*
X69083000Y-124146000D01*
X66483000Y-126806000D02*
X66483000Y-125476000D01*
X69083000Y-124146000D02*
X71683000Y-124146000D01*
%TO.C,J14*%
X87570000Y-101092000D02*
X87570000Y-113852000D01*
X87570000Y-99822000D02*
X87570000Y-98492000D01*
X87570000Y-98492000D02*
X88900000Y-98492000D01*
X87570000Y-101092000D02*
X90230000Y-101092000D01*
X87570000Y-113852000D02*
X90230000Y-113852000D01*
X90230000Y-101092000D02*
X90230000Y-113852000D01*
%TO.C,J8*%
X58599000Y-97730000D02*
X58599000Y-100390000D01*
X63739000Y-97730000D02*
X58599000Y-97730000D01*
X65009000Y-97730000D02*
X66339000Y-97730000D01*
X63739000Y-100390000D02*
X58599000Y-100390000D01*
X66339000Y-97730000D02*
X66339000Y-99060000D01*
X63739000Y-97730000D02*
X63739000Y-100390000D01*
%TO.C,J6*%
X62424000Y-128301000D02*
X65084000Y-128301000D01*
X62424000Y-123161000D02*
X62424000Y-128301000D01*
X62424000Y-121891000D02*
X62424000Y-120561000D01*
X65084000Y-123161000D02*
X65084000Y-128301000D01*
X62424000Y-120561000D02*
X63754000Y-120561000D01*
X62424000Y-123161000D02*
X65084000Y-123161000D01*
%TO.C,J4*%
X46422000Y-120710000D02*
X49082000Y-120710000D01*
X46422000Y-115570000D02*
X46422000Y-120710000D01*
X46422000Y-114300000D02*
X46422000Y-112970000D01*
X49082000Y-115570000D02*
X49082000Y-120710000D01*
X46422000Y-112970000D02*
X47752000Y-112970000D01*
X46422000Y-115570000D02*
X49082000Y-115570000D01*
%TO.C,J3*%
X41088000Y-116272000D02*
X42418000Y-116272000D01*
X41088000Y-118872000D02*
X43748000Y-118872000D01*
X41088000Y-118932000D02*
X43748000Y-118932000D01*
X43748000Y-118872000D02*
X43748000Y-118932000D01*
X41088000Y-118872000D02*
X41088000Y-118932000D01*
X41088000Y-117602000D02*
X41088000Y-116272000D01*
%TO.C,J12*%
X48718000Y-145135000D02*
X48718000Y-134285000D01*
X36818000Y-145135000D02*
X38718000Y-145135000D01*
X36118000Y-144635000D02*
X37068000Y-144635000D01*
X37068000Y-144635000D02*
X36818000Y-145135000D01*
X43618000Y-145135000D02*
X48718000Y-145135000D01*
X43918000Y-144635000D02*
X43618000Y-145135000D01*
X38768000Y-145135000D02*
X38518000Y-144635000D01*
X48718000Y-134285000D02*
X36118000Y-134285000D01*
X36118000Y-134285000D02*
X36118000Y-144635000D01*
X38518000Y-144635000D02*
X43918000Y-144635000D01*
X38718000Y-145135000D02*
X38768000Y-145135000D01*
D13*
%TO.C,IC1*%
X52419000Y-128466000D02*
X59531000Y-128466000D01*
X51427000Y-105098000D02*
X59531000Y-105098000D01*
D12*
%TO.C,R4*%
X57800000Y-94392000D02*
X53960000Y-94392000D01*
X57800000Y-92552000D02*
X53960000Y-92552000D01*
%TO.C,J9*%
X69656000Y-121407000D02*
X69656000Y-122737000D01*
X69656000Y-122737000D02*
X68326000Y-122737000D01*
X66996000Y-120137000D02*
X66996000Y-109917000D01*
X69656000Y-109917000D02*
X66996000Y-109917000D01*
X69656000Y-120137000D02*
X69656000Y-109917000D01*
X69656000Y-120137000D02*
X66996000Y-120137000D01*
%TO.C,C2*%
X51038000Y-133135000D02*
X51038000Y-133150000D01*
X51038000Y-131010000D02*
X51038000Y-131025000D01*
X46498000Y-133135000D02*
X46498000Y-133150000D01*
X46498000Y-133150000D02*
X51038000Y-133150000D01*
X46498000Y-131010000D02*
X51038000Y-131010000D01*
X46498000Y-131010000D02*
X46498000Y-131025000D01*
%TO.C,R5*%
X78374000Y-119284000D02*
X74534000Y-119284000D01*
X78374000Y-117444000D02*
X74534000Y-117444000D01*
%TO.C,R3*%
X57800000Y-89504000D02*
X53960000Y-89504000D01*
X57800000Y-91344000D02*
X53960000Y-91344000D01*
%TO.C,J2*%
X48718000Y-110562000D02*
X48718000Y-99712000D01*
X37068000Y-110062000D02*
X36818000Y-110562000D01*
X48718000Y-99712000D02*
X36118000Y-99712000D01*
X43618000Y-110562000D02*
X48718000Y-110562000D01*
X36118000Y-99712000D02*
X36118000Y-110062000D01*
X38768000Y-110562000D02*
X38518000Y-110062000D01*
X36818000Y-110562000D02*
X38718000Y-110562000D01*
X38518000Y-110062000D02*
X43918000Y-110062000D01*
X43918000Y-110062000D02*
X43618000Y-110562000D01*
X38718000Y-110562000D02*
X38768000Y-110562000D01*
X36118000Y-110062000D02*
X37068000Y-110062000D01*
%TO.C,R1*%
X43800000Y-122016000D02*
X47640000Y-122016000D01*
X43800000Y-123856000D02*
X47640000Y-123856000D01*
%TO.C,R6*%
X74534000Y-120492000D02*
X78374000Y-120492000D01*
X74534000Y-122332000D02*
X78374000Y-122332000D01*
%TO.C,C1*%
X54934000Y-102040000D02*
X54934000Y-101725000D01*
X59874000Y-104465000D02*
X54934000Y-104465000D01*
X59874000Y-104465000D02*
X59874000Y-104150000D01*
X59874000Y-102040000D02*
X59874000Y-101725000D01*
X59874000Y-101725000D02*
X54934000Y-101725000D01*
X54934000Y-104465000D02*
X54934000Y-104150000D01*
%TO.C,Y1*%
X48260000Y-124763000D02*
X43260000Y-124763000D01*
X48260000Y-128163000D02*
X43260000Y-128163000D01*
X48260000Y-128163000D02*
G75*
G03*
X48260000Y-124763000I0J1700000D01*
G01*
X43260000Y-124763000D02*
G75*
G03*
X43260000Y-128163000I0J-1700000D01*
G01*
%TO.C,J7*%
X65338000Y-108204000D02*
X65338000Y-108264000D01*
X62678000Y-108204000D02*
X62678000Y-108264000D01*
X62678000Y-108204000D02*
X65338000Y-108204000D01*
X62678000Y-108264000D02*
X65338000Y-108264000D01*
X62678000Y-105604000D02*
X64008000Y-105604000D01*
X62678000Y-106934000D02*
X62678000Y-105604000D01*
%TO.C,R2*%
X78374000Y-130144000D02*
X74534000Y-130144000D01*
X78374000Y-131984000D02*
X74534000Y-131984000D01*
%TO.C,J13*%
X69282000Y-85030000D02*
X69282000Y-87690000D01*
X79502000Y-85030000D02*
X69282000Y-85030000D01*
X79502000Y-87690000D02*
X69282000Y-87690000D01*
X82102000Y-85030000D02*
X82102000Y-86360000D01*
X80772000Y-85030000D02*
X82102000Y-85030000D01*
X79502000Y-85030000D02*
X79502000Y-87690000D01*
%TO.C,C3*%
X50784000Y-145996000D02*
X46244000Y-145996000D01*
X50784000Y-148136000D02*
X46244000Y-148136000D01*
X46244000Y-146011000D02*
X46244000Y-145996000D01*
X46244000Y-148136000D02*
X46244000Y-148121000D01*
X50784000Y-146011000D02*
X50784000Y-145996000D01*
X50784000Y-148136000D02*
X50784000Y-148121000D01*
%TO.C,U1*%
X54912000Y-139954000D02*
X52372000Y-139954000D01*
X54912000Y-134834000D02*
X54912000Y-145074000D01*
X70802000Y-145074000D02*
X54912000Y-145074000D01*
X70802000Y-134834000D02*
X70802000Y-145074000D01*
X70802000Y-134834000D02*
X54912000Y-134834000D01*
X54912000Y-137414000D02*
X52372000Y-137414000D01*
X54912000Y-142494000D02*
X52372000Y-142494000D01*
%TO.C,J1*%
X84896000Y-93532000D02*
X84896000Y-90872000D01*
X66996000Y-93532000D02*
X66996000Y-92202000D01*
X69596000Y-93532000D02*
X69596000Y-90872000D01*
X69596000Y-90872000D02*
X84896000Y-90872000D01*
X69596000Y-93532000D02*
X84896000Y-93532000D01*
X68326000Y-93532000D02*
X66996000Y-93532000D01*
%TD*%
%LPC*%
D14*
%TO.C,J11*%
X71374000Y-98806000D03*
%TD*%
%TO.C,J10*%
X82804000Y-130556000D03*
%TD*%
D15*
%TO.C,R9*%
X76200000Y-111760000D03*
D16*
X81280000Y-111760000D03*
%TD*%
%TO.C,R12*%
X73914000Y-127508000D03*
D15*
X78994000Y-127508000D03*
%TD*%
D16*
%TO.C,R11*%
X78994000Y-124460000D03*
D15*
X73914000Y-124460000D03*
%TD*%
D16*
%TO.C,R10*%
X81280000Y-114808000D03*
D15*
X76200000Y-114808000D03*
%TD*%
%TO.C,R8*%
X84328000Y-109728000D03*
D16*
X84328000Y-114808000D03*
%TD*%
%TO.C,R7*%
X79248000Y-106934000D03*
D15*
X74168000Y-106934000D03*
%TD*%
D14*
%TO.C,JP1*%
X67813000Y-125476000D03*
D17*
X70353000Y-125476000D03*
%TD*%
D14*
%TO.C,J14*%
X88900000Y-99822000D03*
D17*
X88900000Y-102362000D03*
X88900000Y-104902000D03*
X88900000Y-107442000D03*
X88900000Y-109982000D03*
X88900000Y-112522000D03*
%TD*%
D18*
%TO.C,J8*%
X65009000Y-99060000D03*
D14*
X62469000Y-99060000D03*
D17*
X59929000Y-99060000D03*
%TD*%
D14*
%TO.C,J6*%
X63754000Y-121891000D03*
D17*
X63754000Y-124431000D03*
X63754000Y-126971000D03*
%TD*%
D14*
%TO.C,J4*%
X47752000Y-114300000D03*
D17*
X47752000Y-116840000D03*
X47752000Y-119380000D03*
%TD*%
D14*
%TO.C,J3*%
X42418000Y-117602000D03*
%TD*%
D19*
%TO.C,J12*%
X42418000Y-136935000D03*
D20*
X42418000Y-141935000D03*
%TD*%
D21*
%TO.C,IC1*%
X52006000Y-106622000D03*
D22*
X52006000Y-109162000D03*
X52006000Y-111702000D03*
X52006000Y-114242000D03*
X52006000Y-116782000D03*
X52006000Y-119322000D03*
X52006000Y-121862000D03*
X52006000Y-124402000D03*
X52006000Y-126942000D03*
X59944000Y-126942000D03*
X59944000Y-124402000D03*
X59944000Y-121862000D03*
X59944000Y-119322000D03*
X59944000Y-116782000D03*
X59944000Y-114242000D03*
X59944000Y-111702000D03*
X59944000Y-109162000D03*
X59944000Y-106622000D03*
%TD*%
D16*
%TO.C,R4*%
X58420000Y-93472000D03*
D15*
X53340000Y-93472000D03*
%TD*%
D14*
%TO.C,J9*%
X68326000Y-121407000D03*
D17*
X68326000Y-118867000D03*
X68326000Y-116327000D03*
X68326000Y-113787000D03*
X68326000Y-111247000D03*
%TD*%
D23*
%TO.C,C2*%
X46268000Y-132080000D03*
X51268000Y-132080000D03*
%TD*%
D16*
%TO.C,R5*%
X78994000Y-118364000D03*
D15*
X73914000Y-118364000D03*
%TD*%
D16*
%TO.C,R3*%
X58420000Y-90424000D03*
D15*
X53340000Y-90424000D03*
%TD*%
D19*
%TO.C,J2*%
X42418000Y-102362000D03*
D20*
X42418000Y-107362000D03*
%TD*%
D16*
%TO.C,R1*%
X43180000Y-122936000D03*
D15*
X48260000Y-122936000D03*
%TD*%
D16*
%TO.C,R6*%
X73914000Y-121412000D03*
D15*
X78994000Y-121412000D03*
%TD*%
D23*
%TO.C,C1*%
X59904000Y-103095000D03*
X54904000Y-103095000D03*
%TD*%
D18*
%TO.C,Y1*%
X48260000Y-126463000D03*
X45760000Y-126463000D03*
X43260000Y-126463000D03*
%TD*%
D14*
%TO.C,J7*%
X64008000Y-106934000D03*
%TD*%
D16*
%TO.C,R2*%
X78994000Y-131064000D03*
D15*
X73914000Y-131064000D03*
%TD*%
D14*
%TO.C,J13*%
X80772000Y-86360000D03*
D17*
X78232000Y-86360000D03*
X75692000Y-86360000D03*
X73152000Y-86360000D03*
X70612000Y-86360000D03*
%TD*%
D23*
%TO.C,C3*%
X51014000Y-147066000D03*
X46014000Y-147066000D03*
%TD*%
D24*
%TO.C,U1*%
X67882000Y-139954000D03*
D25*
X51222000Y-137414000D03*
D26*
X51222000Y-139954000D03*
X51222000Y-142494000D03*
%TD*%
D14*
%TO.C,J1*%
X68326000Y-92202000D03*
D17*
X70866000Y-92202000D03*
X73406000Y-92202000D03*
X75946000Y-92202000D03*
X78486000Y-92202000D03*
X81026000Y-92202000D03*
X83566000Y-92202000D03*
%TD*%
M02*
