%TF.GenerationSoftware,KiCad,Pcbnew,(6.0.4)*%
%TF.CreationDate,2022-07-11T12:49:23+03:00*%
%TF.ProjectId,V1_mini_mcp2515_based,56315f6d-696e-4695-9f6d-637032353135,rev?*%
%TF.SameCoordinates,Original*%
%TF.FileFunction,Copper,L1,Top*%
%TF.FilePolarity,Positive*%
%FSLAX46Y46*%
G04 Gerber Fmt 4.6, Leading zero omitted, Abs format (unit mm)*
G04 Created by KiCad (PCBNEW (6.0.4)) date 2022-07-11 12:49:23*
%MOMM*%
%LPD*%
G01*
G04 APERTURE LIST*
%ADD10C,0.300000*%
%TA.AperFunction,NonConductor*%
%ADD11C,0.300000*%
%TD*%
%ADD12C,0.500000*%
%TA.AperFunction,NonConductor*%
%ADD13C,0.500000*%
%TD*%
%TA.AperFunction,ComponentPad*%
%ADD14R,1.700000X1.700000*%
%TD*%
%TA.AperFunction,ComponentPad*%
%ADD15O,1.400000X1.400000*%
%TD*%
%TA.AperFunction,ComponentPad*%
%ADD16C,1.400000*%
%TD*%
%TA.AperFunction,ComponentPad*%
%ADD17O,1.700000X1.700000*%
%TD*%
%TA.AperFunction,ComponentPad*%
%ADD18C,1.700000*%
%TD*%
%TA.AperFunction,ComponentPad*%
%ADD19R,3.960000X1.980000*%
%TD*%
%TA.AperFunction,ComponentPad*%
%ADD20O,3.960000X1.980000*%
%TD*%
%TA.AperFunction,ComponentPad*%
%ADD21R,1.159000X1.159000*%
%TD*%
%TA.AperFunction,ComponentPad*%
%ADD22C,1.159000*%
%TD*%
%TA.AperFunction,ComponentPad*%
%ADD23C,1.600000*%
%TD*%
%TA.AperFunction,ComponentPad*%
%ADD24R,2.000000X1.905000*%
%TD*%
%TA.AperFunction,ComponentPad*%
%ADD25O,2.000000X1.905000*%
%TD*%
%TA.AperFunction,ViaPad*%
%ADD26C,1.500000*%
%TD*%
%TA.AperFunction,ViaPad*%
%ADD27C,1.200000*%
%TD*%
%TA.AperFunction,Conductor*%
%ADD28C,0.750000*%
%TD*%
%TA.AperFunction,Conductor*%
%ADD29C,0.500000*%
%TD*%
%TA.AperFunction,Conductor*%
%ADD30C,1.000000*%
%TD*%
G04 APERTURE END LIST*
D10*
D11*
X38735142Y-146062000D02*
X38592285Y-145990571D01*
X38378000Y-145990571D01*
X38163714Y-146062000D01*
X38020857Y-146204857D01*
X37949428Y-146347714D01*
X37878000Y-146633428D01*
X37878000Y-146847714D01*
X37949428Y-147133428D01*
X38020857Y-147276285D01*
X38163714Y-147419142D01*
X38378000Y-147490571D01*
X38520857Y-147490571D01*
X38735142Y-147419142D01*
X38806571Y-147347714D01*
X38806571Y-146847714D01*
X38520857Y-146847714D01*
X39449428Y-147490571D02*
X39449428Y-145990571D01*
X40306571Y-147490571D01*
X40306571Y-145990571D01*
X41020857Y-147490571D02*
X41020857Y-145990571D01*
X41378000Y-145990571D01*
X41592285Y-146062000D01*
X41735142Y-146204857D01*
X41806571Y-146347714D01*
X41878000Y-146633428D01*
X41878000Y-146847714D01*
X41806571Y-147133428D01*
X41735142Y-147276285D01*
X41592285Y-147419142D01*
X41378000Y-147490571D01*
X41020857Y-147490571D01*
D10*
D11*
X38949428Y-133520571D02*
X38092285Y-133520571D01*
X38520857Y-133520571D02*
X38520857Y-132020571D01*
X38378000Y-132234857D01*
X38235142Y-132377714D01*
X38092285Y-132449142D01*
X39520857Y-132163428D02*
X39592285Y-132092000D01*
X39735142Y-132020571D01*
X40092285Y-132020571D01*
X40235142Y-132092000D01*
X40306571Y-132163428D01*
X40378000Y-132306285D01*
X40378000Y-132449142D01*
X40306571Y-132663428D01*
X39449428Y-133520571D01*
X40378000Y-133520571D01*
X40806571Y-132020571D02*
X41306571Y-133520571D01*
X41806571Y-132020571D01*
D10*
D11*
X63420857Y-101286571D02*
X64349428Y-101286571D01*
X63849428Y-101858000D01*
X64063714Y-101858000D01*
X64206571Y-101929428D01*
X64278000Y-102000857D01*
X64349428Y-102143714D01*
X64349428Y-102500857D01*
X64278000Y-102643714D01*
X64206571Y-102715142D01*
X64063714Y-102786571D01*
X63635142Y-102786571D01*
X63492285Y-102715142D01*
X63420857Y-102643714D01*
X64778000Y-101286571D02*
X65278000Y-102786571D01*
X65778000Y-101286571D01*
X66135142Y-101286571D02*
X67063714Y-101286571D01*
X66563714Y-101858000D01*
X66778000Y-101858000D01*
X66920857Y-101929428D01*
X66992285Y-102000857D01*
X67063714Y-102143714D01*
X67063714Y-102500857D01*
X66992285Y-102643714D01*
X66920857Y-102715142D01*
X66778000Y-102786571D01*
X66349428Y-102786571D01*
X66206571Y-102715142D01*
X66135142Y-102643714D01*
D10*
D11*
X59404285Y-95444571D02*
X58690000Y-95444571D01*
X58618571Y-96158857D01*
X58690000Y-96087428D01*
X58832857Y-96016000D01*
X59190000Y-96016000D01*
X59332857Y-96087428D01*
X59404285Y-96158857D01*
X59475714Y-96301714D01*
X59475714Y-96658857D01*
X59404285Y-96801714D01*
X59332857Y-96873142D01*
X59190000Y-96944571D01*
X58832857Y-96944571D01*
X58690000Y-96873142D01*
X58618571Y-96801714D01*
X59904285Y-95444571D02*
X60404285Y-96944571D01*
X60904285Y-95444571D01*
D10*
D11*
X37132000Y-112549714D02*
X37060571Y-112621142D01*
X36846285Y-112692571D01*
X36703428Y-112692571D01*
X36489142Y-112621142D01*
X36346285Y-112478285D01*
X36274857Y-112335428D01*
X36203428Y-112049714D01*
X36203428Y-111835428D01*
X36274857Y-111549714D01*
X36346285Y-111406857D01*
X36489142Y-111264000D01*
X36703428Y-111192571D01*
X36846285Y-111192571D01*
X37060571Y-111264000D01*
X37132000Y-111335428D01*
X37703428Y-112264000D02*
X38417714Y-112264000D01*
X37560571Y-112692571D02*
X38060571Y-111192571D01*
X38560571Y-112692571D01*
X39060571Y-112692571D02*
X39060571Y-111192571D01*
X39917714Y-112692571D01*
X39917714Y-111192571D01*
X40274857Y-112835428D02*
X41417714Y-112835428D01*
X42632000Y-112692571D02*
X42132000Y-111978285D01*
X41774857Y-112692571D02*
X41774857Y-111192571D01*
X42346285Y-111192571D01*
X42489142Y-111264000D01*
X42560571Y-111335428D01*
X42632000Y-111478285D01*
X42632000Y-111692571D01*
X42560571Y-111835428D01*
X42489142Y-111906857D01*
X42346285Y-111978285D01*
X41774857Y-111978285D01*
X43132000Y-111192571D02*
X44132000Y-112692571D01*
X44132000Y-111192571D02*
X43132000Y-112692571D01*
D10*
D11*
X39088571Y-98833714D02*
X39017142Y-98905142D01*
X38802857Y-98976571D01*
X38660000Y-98976571D01*
X38445714Y-98905142D01*
X38302857Y-98762285D01*
X38231428Y-98619428D01*
X38160000Y-98333714D01*
X38160000Y-98119428D01*
X38231428Y-97833714D01*
X38302857Y-97690857D01*
X38445714Y-97548000D01*
X38660000Y-97476571D01*
X38802857Y-97476571D01*
X39017142Y-97548000D01*
X39088571Y-97619428D01*
X39660000Y-98548000D02*
X40374285Y-98548000D01*
X39517142Y-98976571D02*
X40017142Y-97476571D01*
X40517142Y-98976571D01*
X41017142Y-98976571D02*
X41017142Y-97476571D01*
X41874285Y-98976571D01*
X41874285Y-97476571D01*
X42231428Y-99119428D02*
X43374285Y-99119428D01*
X43517142Y-97476571D02*
X44374285Y-97476571D01*
X43945714Y-98976571D02*
X43945714Y-97476571D01*
X44731428Y-97476571D02*
X45731428Y-98976571D01*
X45731428Y-97476571D02*
X44731428Y-98976571D01*
D12*
D13*
X40346285Y-87535142D02*
X40203428Y-87963714D01*
X40060571Y-88106571D01*
X39774857Y-88249428D01*
X39346285Y-88249428D01*
X39060571Y-88106571D01*
X38917714Y-87963714D01*
X38774857Y-87678000D01*
X38774857Y-86535142D01*
X41774857Y-86535142D01*
X41774857Y-87535142D01*
X41632000Y-87820857D01*
X41489142Y-87963714D01*
X41203428Y-88106571D01*
X40917714Y-88106571D01*
X40632000Y-87963714D01*
X40489142Y-87820857D01*
X40346285Y-87535142D01*
X40346285Y-86535142D01*
X40346285Y-89535142D02*
X40346285Y-90535142D01*
X38774857Y-90963714D02*
X38774857Y-89535142D01*
X41774857Y-89535142D01*
X41774857Y-90963714D01*
X38774857Y-92249428D02*
X41774857Y-92249428D01*
X39632000Y-93535142D02*
X39632000Y-94963714D01*
X38774857Y-93249428D02*
X41774857Y-94249428D01*
X38774857Y-95249428D01*
D14*
%TO.P,J11,1,Pin_1*%
%TO.N,+3V3*%
X71374000Y-98806000D03*
%TD*%
%TO.P,J10,1,Pin_1*%
%TO.N,+3V3*%
X82804000Y-130556000D03*
%TD*%
D15*
%TO.P,R9,2*%
%TO.N,SPI_SS*%
X76200000Y-111760000D03*
D16*
%TO.P,R9,1*%
%TO.N,Net-(J14-Pad6)*%
X81280000Y-111760000D03*
%TD*%
%TO.P,R12,1*%
%TO.N,Net-(JP1-Pad2)*%
X73914000Y-127508000D03*
D15*
%TO.P,R12,2*%
%TO.N,Net-(J14-Pad5)*%
X78994000Y-127508000D03*
%TD*%
D16*
%TO.P,R11,1*%
%TO.N,Net-(J14-Pad5)*%
X78994000Y-124460000D03*
D15*
%TO.P,R11,2*%
%TO.N,/SS*%
X73914000Y-124460000D03*
%TD*%
D16*
%TO.P,R10,1*%
%TO.N,Net-(JP1-Pad2)*%
X81280000Y-114808000D03*
D15*
%TO.P,R10,2*%
%TO.N,Net-(J14-Pad6)*%
X76200000Y-114808000D03*
%TD*%
%TO.P,R8,2*%
%TO.N,Net-(J14-Pad4)*%
X84328000Y-109728000D03*
D16*
%TO.P,R8,1*%
%TO.N,Net-(JP1-Pad2)*%
X84328000Y-114808000D03*
%TD*%
%TO.P,R7,1*%
%TO.N,Net-(J14-Pad4)*%
X79248000Y-106934000D03*
D15*
%TO.P,R7,2*%
%TO.N,SPI_MOSI*%
X74168000Y-106934000D03*
%TD*%
D14*
%TO.P,JP1,1,A*%
%TO.N,GND*%
X67813000Y-125476000D03*
D17*
%TO.P,JP1,2,B*%
%TO.N,Net-(JP1-Pad2)*%
X70353000Y-125476000D03*
%TD*%
D14*
%TO.P,J14,1,Pin_1*%
%TO.N,GND*%
X88900000Y-99822000D03*
D17*
%TO.P,J14,2,Pin_2*%
%TO.N,Net-(J14-Pad2)*%
X88900000Y-102362000D03*
%TO.P,J14,3,Pin_3*%
%TO.N,SPI_MISO*%
X88900000Y-104902000D03*
%TO.P,J14,4,Pin_4*%
%TO.N,Net-(J14-Pad4)*%
X88900000Y-107442000D03*
%TO.P,J14,5,Pin_5*%
%TO.N,Net-(J14-Pad5)*%
X88900000Y-109982000D03*
%TO.P,J14,6,Pin_6*%
%TO.N,Net-(J14-Pad6)*%
X88900000Y-112522000D03*
%TD*%
D18*
%TO.P,J8,1,Pin_1*%
%TO.N,+3V3*%
X65009000Y-99060000D03*
D14*
%TO.P,J8,2,Pin_2*%
%TO.N,GND*%
X62469000Y-99060000D03*
D17*
%TO.P,J8,3,Pin_3*%
%TO.N,+5V*%
X59929000Y-99060000D03*
%TD*%
D14*
%TO.P,J6,1,Pin_1*%
%TO.N,Net-(IC1-Pad12)*%
X63754000Y-121891000D03*
D17*
%TO.P,J6,2,Pin_2*%
%TO.N,Net-(IC1-Pad11)*%
X63754000Y-124431000D03*
%TO.P,J6,3,Pin_3*%
%TO.N,Net-(IC1-Pad10)*%
X63754000Y-126971000D03*
%TD*%
D14*
%TO.P,J4,1,Pin_1*%
%TO.N,Net-(IC1-Pad4)*%
X47752000Y-114300000D03*
D17*
%TO.P,J4,2,Pin_2*%
%TO.N,Net-(IC1-Pad5)*%
X47752000Y-116840000D03*
%TO.P,J4,3,Pin_3*%
%TO.N,Net-(IC1-Pad6)*%
X47752000Y-119380000D03*
%TD*%
D14*
%TO.P,J3,1,Pin_1*%
%TO.N,Net-(IC1-Pad3)*%
X42418000Y-117602000D03*
%TD*%
D19*
%TO.P,J12,1,Pin_1*%
%TO.N,+12V*%
X42418000Y-136935000D03*
D20*
%TO.P,J12,2,Pin_2*%
%TO.N,GND*%
X42418000Y-141935000D03*
%TD*%
D21*
%TO.P,IC1,1,TXCAN*%
%TO.N,Net-(IC1-Pad1)*%
X52006000Y-106622000D03*
D22*
%TO.P,IC1,2,RXCAN*%
%TO.N,Net-(IC1-Pad2)*%
X52006000Y-109162000D03*
%TO.P,IC1,3,CLKOUT/SOF*%
%TO.N,Net-(IC1-Pad3)*%
X52006000Y-111702000D03*
%TO.P,IC1,4,~{TX0RTS}*%
%TO.N,Net-(IC1-Pad4)*%
X52006000Y-114242000D03*
%TO.P,IC1,5,~{TX1RTS}*%
%TO.N,Net-(IC1-Pad5)*%
X52006000Y-116782000D03*
%TO.P,IC1,6,~{TX2RTS}*%
%TO.N,Net-(IC1-Pad6)*%
X52006000Y-119322000D03*
%TO.P,IC1,7,OSC2*%
%TO.N,Net-(IC1-Pad7)*%
X52006000Y-121862000D03*
%TO.P,IC1,8,OSC1*%
%TO.N,Net-(IC1-Pad8)*%
X52006000Y-124402000D03*
%TO.P,IC1,9,VSS*%
%TO.N,GND*%
X52006000Y-126942000D03*
%TO.P,IC1,10,~{RX1BF}*%
%TO.N,Net-(IC1-Pad10)*%
X59944000Y-126942000D03*
%TO.P,IC1,11,~{RX0BF}*%
%TO.N,Net-(IC1-Pad11)*%
X59944000Y-124402000D03*
%TO.P,IC1,12,~{INT}*%
%TO.N,Net-(IC1-Pad12)*%
X59944000Y-121862000D03*
%TO.P,IC1,13,SCK*%
%TO.N,SPI_CLK*%
X59944000Y-119322000D03*
%TO.P,IC1,14,SI*%
%TO.N,SPI_MOSI*%
X59944000Y-116782000D03*
%TO.P,IC1,15,SO*%
%TO.N,SPI_MISO*%
X59944000Y-114242000D03*
%TO.P,IC1,16,~{CS}*%
%TO.N,SPI_SS*%
X59944000Y-111702000D03*
%TO.P,IC1,17,~{RESET}*%
%TO.N,Net-(IC1-Pad17)*%
X59944000Y-109162000D03*
%TO.P,IC1,18,VDD*%
%TO.N,+5V*%
X59944000Y-106622000D03*
%TD*%
D16*
%TO.P,R4,1*%
%TO.N,+3V3*%
X58420000Y-93472000D03*
D15*
%TO.P,R4,2*%
%TO.N,SPI_SS*%
X53340000Y-93472000D03*
%TD*%
D14*
%TO.P,J9,1,Pin_1*%
%TO.N,GND*%
X68326000Y-121407000D03*
D17*
%TO.P,J9,2,Pin_2*%
%TO.N,SPI_CLK*%
X68326000Y-118867000D03*
%TO.P,J9,3,Pin_3*%
%TO.N,SPI_MOSI*%
X68326000Y-116327000D03*
%TO.P,J9,4,Pin_4*%
%TO.N,SPI_MISO*%
X68326000Y-113787000D03*
%TO.P,J9,5,Pin_5*%
%TO.N,SPI_SS*%
X68326000Y-111247000D03*
%TD*%
D23*
%TO.P,C2,1*%
%TO.N,GND*%
X46268000Y-132080000D03*
%TO.P,C2,2*%
%TO.N,+12V*%
X51268000Y-132080000D03*
%TD*%
D16*
%TO.P,R5,1*%
%TO.N,Net-(J14-Pad2)*%
X78994000Y-118364000D03*
D15*
%TO.P,R5,2*%
%TO.N,SPI_CLK*%
X73914000Y-118364000D03*
%TD*%
D16*
%TO.P,R3,1*%
%TO.N,+3V3*%
X58420000Y-90424000D03*
D15*
%TO.P,R3,2*%
%TO.N,/SS*%
X53340000Y-90424000D03*
%TD*%
D19*
%TO.P,J2,1,Pin_1*%
%TO.N,Net-(IC1-Pad1)*%
X42418000Y-102362000D03*
D20*
%TO.P,J2,2,Pin_2*%
%TO.N,Net-(IC1-Pad2)*%
X42418000Y-107362000D03*
%TD*%
D16*
%TO.P,R1,1*%
%TO.N,Net-(R1-Pad1)*%
X43180000Y-122936000D03*
D15*
%TO.P,R1,2*%
%TO.N,Net-(IC1-Pad7)*%
X48260000Y-122936000D03*
%TD*%
D16*
%TO.P,R6,1*%
%TO.N,Net-(JP1-Pad2)*%
X73914000Y-121412000D03*
D15*
%TO.P,R6,2*%
%TO.N,Net-(J14-Pad2)*%
X78994000Y-121412000D03*
%TD*%
D23*
%TO.P,C1,1*%
%TO.N,+5V*%
X59904000Y-103095000D03*
%TO.P,C1,2*%
%TO.N,GND*%
X54904000Y-103095000D03*
%TD*%
D18*
%TO.P,Y1,1,1*%
%TO.N,Net-(IC1-Pad8)*%
X48260000Y-126463000D03*
%TO.P,Y1,2,2*%
%TO.N,GND*%
X45760000Y-126463000D03*
%TO.P,Y1,3,3*%
%TO.N,Net-(R1-Pad1)*%
X43260000Y-126463000D03*
%TD*%
D14*
%TO.P,J7,1,Pin_1*%
%TO.N,Net-(IC1-Pad17)*%
X64008000Y-106934000D03*
%TD*%
D16*
%TO.P,R2,1*%
%TO.N,+3V3*%
X78994000Y-131064000D03*
D15*
%TO.P,R2,2*%
%TO.N,/SS*%
X73914000Y-131064000D03*
%TD*%
D14*
%TO.P,J13,1,Pin_1*%
%TO.N,GND*%
X80772000Y-86360000D03*
D17*
%TO.P,J13,2,Pin_2*%
%TO.N,SPI_MISO*%
X78232000Y-86360000D03*
%TO.P,J13,3,Pin_3*%
%TO.N,SPI_CLK*%
X75692000Y-86360000D03*
%TO.P,J13,4,Pin_4*%
%TO.N,SPI_MOSI*%
X73152000Y-86360000D03*
%TO.P,J13,5,Pin_5*%
%TO.N,/SS*%
X70612000Y-86360000D03*
%TD*%
D23*
%TO.P,C3,1*%
%TO.N,+5V*%
X51014000Y-147066000D03*
%TO.P,C3,2*%
%TO.N,GND*%
X46014000Y-147066000D03*
%TD*%
D24*
%TO.P,U1,1,VI*%
%TO.N,+12V*%
X51222000Y-137414000D03*
D25*
%TO.P,U1,2,GND*%
%TO.N,GND*%
X51222000Y-139954000D03*
%TO.P,U1,3,VO*%
%TO.N,+5V*%
X51222000Y-142494000D03*
%TD*%
D14*
%TO.P,J1,1,Pin_1*%
%TO.N,/SS*%
X68326000Y-92202000D03*
D17*
%TO.P,J1,2,Pin_2*%
%TO.N,SPI_MOSI*%
X70866000Y-92202000D03*
%TO.P,J1,3,Pin_3*%
%TO.N,GND*%
X73406000Y-92202000D03*
%TO.P,J1,4,Pin_4*%
%TO.N,+3V3*%
X75946000Y-92202000D03*
%TO.P,J1,5,Pin_5*%
%TO.N,SPI_CLK*%
X78486000Y-92202000D03*
%TO.P,J1,6,Pin_6*%
%TO.N,GND*%
X81026000Y-92202000D03*
%TO.P,J1,7,Pin_7*%
%TO.N,SPI_MISO*%
X83566000Y-92202000D03*
%TD*%
D26*
%TO.N,SPI_MISO*%
X78994000Y-103378000D03*
X71374000Y-103378000D03*
D27*
%TO.N,GND*%
X91440000Y-133858000D03*
%TO.N,Net-(J14-Pad5)*%
X84836000Y-119126000D03*
%TO.N,SPI_SS*%
X55118000Y-111760000D03*
%TO.N,/SS*%
X68580000Y-106680000D03*
%TD*%
D28*
%TO.N,SPI_SS*%
X53848000Y-93472000D02*
X53340000Y-93472000D01*
X56896000Y-96520000D02*
X53848000Y-93472000D01*
X56896000Y-105791000D02*
X56896000Y-96520000D01*
X55118000Y-107569000D02*
X56896000Y-105791000D01*
%TO.N,+3V3*%
X58420000Y-90424000D02*
X58420000Y-93472000D01*
%TO.N,SPI_SS*%
X55118000Y-111760000D02*
X55118000Y-107569000D01*
%TO.N,+3V3*%
X58928000Y-92964000D02*
X58420000Y-93472000D01*
X65009000Y-96251000D02*
X61722000Y-92964000D01*
X61722000Y-92964000D02*
X58928000Y-92964000D01*
X65009000Y-99060000D02*
X65009000Y-96251000D01*
D29*
%TO.N,Net-(IC1-Pad8)*%
X51620000Y-124402000D02*
X52006000Y-124402000D01*
X49559000Y-126463000D02*
X51620000Y-124402000D01*
X48260000Y-126463000D02*
X49559000Y-126463000D01*
%TO.N,Net-(IC1-Pad7)*%
X51694000Y-122174000D02*
X52006000Y-121862000D01*
X48260000Y-122936000D02*
X49022000Y-122174000D01*
X49022000Y-122174000D02*
X51694000Y-122174000D01*
%TO.N,Net-(IC1-Pad5)*%
X51948000Y-116840000D02*
X52006000Y-116782000D01*
X47752000Y-116840000D02*
X51948000Y-116840000D01*
%TO.N,Net-(IC1-Pad4)*%
X51948000Y-114300000D02*
X52006000Y-114242000D01*
X47752000Y-114300000D02*
X51948000Y-114300000D01*
%TO.N,Net-(IC1-Pad6)*%
X47810000Y-119322000D02*
X47752000Y-119380000D01*
X52006000Y-119322000D02*
X47810000Y-119322000D01*
D28*
%TO.N,+3V3*%
X79248000Y-130810000D02*
X82550000Y-130810000D01*
X82550000Y-130810000D02*
X82804000Y-130556000D01*
X78994000Y-131064000D02*
X79248000Y-130810000D01*
D29*
%TO.N,/SS*%
X74168000Y-131064000D02*
X73914000Y-131064000D01*
X76200000Y-129032000D02*
X74168000Y-131064000D01*
X76200000Y-125222000D02*
X76200000Y-129032000D01*
X75438000Y-124460000D02*
X76200000Y-125222000D01*
X73914000Y-124460000D02*
X75438000Y-124460000D01*
%TO.N,Net-(JP1-Pad2)*%
X73406000Y-121412000D02*
X70353000Y-124465000D01*
X73914000Y-121412000D02*
X73406000Y-121412000D01*
X70353000Y-124465000D02*
X70353000Y-125476000D01*
D28*
%TO.N,Net-(J14-Pad5)*%
X86614000Y-119126000D02*
X84836000Y-119126000D01*
X90932000Y-110744000D02*
X90932000Y-114808000D01*
X90932000Y-114808000D02*
X86614000Y-119126000D01*
X90170000Y-109982000D02*
X90932000Y-110744000D01*
X88900000Y-109982000D02*
X90170000Y-109982000D01*
%TO.N,Net-(J14-Pad2)*%
X92456000Y-116840000D02*
X87884000Y-121412000D01*
X92456000Y-103886000D02*
X92456000Y-116840000D01*
X87884000Y-121412000D02*
X78994000Y-121412000D01*
X90932000Y-102362000D02*
X92456000Y-103886000D01*
X88900000Y-102362000D02*
X90932000Y-102362000D01*
D29*
%TO.N,Net-(JP1-Pad2)*%
X74422000Y-121412000D02*
X73914000Y-121412000D01*
X76454000Y-117856000D02*
X76454000Y-119380000D01*
X79121000Y-116459000D02*
X77851000Y-116459000D01*
X80772000Y-114808000D02*
X79121000Y-116459000D01*
X77851000Y-116459000D02*
X76454000Y-117856000D01*
X76454000Y-119380000D02*
X74422000Y-121412000D01*
X81280000Y-114808000D02*
X80772000Y-114808000D01*
D28*
%TO.N,Net-(J14-Pad2)*%
X78994000Y-121412000D02*
X78994000Y-118364000D01*
D29*
%TO.N,SPI_CLK*%
X68331000Y-118872000D02*
X68326000Y-118867000D01*
X73406000Y-118872000D02*
X68331000Y-118872000D01*
X73914000Y-118364000D02*
X73406000Y-118872000D01*
X74168000Y-118110000D02*
X73914000Y-118364000D01*
X74168000Y-110236000D02*
X74168000Y-118110000D01*
X76962000Y-107442000D02*
X74168000Y-110236000D01*
X78486000Y-92202000D02*
X76962000Y-93726000D01*
X76962000Y-93726000D02*
X76962000Y-107442000D01*
%TO.N,Net-(J14-Pad5)*%
X78994000Y-124460000D02*
X78994000Y-127508000D01*
%TO.N,Net-(JP1-Pad2)*%
X70353000Y-125476000D02*
X72385000Y-127508000D01*
X72385000Y-127508000D02*
X73914000Y-127508000D01*
X84328000Y-114808000D02*
X81280000Y-114808000D01*
%TO.N,Net-(J14-Pad4)*%
X84328000Y-109728000D02*
X84328000Y-107442000D01*
%TO.N,Net-(J14-Pad6)*%
X81534000Y-112014000D02*
X88392000Y-112014000D01*
X81280000Y-111760000D02*
X81534000Y-112014000D01*
X88392000Y-112014000D02*
X88900000Y-112522000D01*
X77978000Y-114808000D02*
X81026000Y-111760000D01*
X76200000Y-114808000D02*
X77978000Y-114808000D01*
X81026000Y-111760000D02*
X81280000Y-111760000D01*
%TO.N,Net-(J14-Pad4)*%
X79248000Y-106934000D02*
X79756000Y-107442000D01*
X79756000Y-107442000D02*
X84328000Y-107442000D01*
X84328000Y-107442000D02*
X88900000Y-107442000D01*
%TO.N,SPI_MISO*%
X71120000Y-103632000D02*
X71120000Y-112649000D01*
X69982000Y-113787000D02*
X68326000Y-113787000D01*
X71374000Y-103378000D02*
X71120000Y-103632000D01*
X71120000Y-112649000D02*
X69982000Y-113787000D01*
%TO.N,SPI_MOSI*%
X72644000Y-108585000D02*
X74168000Y-107061000D01*
X69855000Y-116327000D02*
X72644000Y-113538000D01*
X72644000Y-113538000D02*
X72644000Y-108585000D01*
X68326000Y-116327000D02*
X69855000Y-116327000D01*
X74168000Y-107061000D02*
X74168000Y-106934000D01*
X68067000Y-116586000D02*
X68326000Y-116327000D01*
X60140000Y-116586000D02*
X68067000Y-116586000D01*
X59944000Y-116782000D02*
X60140000Y-116586000D01*
%TO.N,Net-(IC1-Pad3)*%
X45466000Y-112776000D02*
X46540000Y-111702000D01*
X45466000Y-114300000D02*
X45466000Y-112776000D01*
X42418000Y-117602000D02*
X42672000Y-117348000D01*
X42672000Y-117348000D02*
X42672000Y-117094000D01*
X42672000Y-117094000D02*
X45466000Y-114300000D01*
X46540000Y-111702000D02*
X52006000Y-111702000D01*
D30*
%TO.N,Net-(IC1-Pad2)*%
X44218000Y-109162000D02*
X42418000Y-107362000D01*
X52006000Y-109162000D02*
X44218000Y-109162000D01*
D29*
%TO.N,SPI_MISO*%
X83566000Y-90932000D02*
X83566000Y-92202000D01*
X80264000Y-89662000D02*
X82296000Y-89662000D01*
X82296000Y-89662000D02*
X83566000Y-90932000D01*
X78232000Y-86360000D02*
X78232000Y-87630000D01*
X78232000Y-87630000D02*
X80264000Y-89662000D01*
%TO.N,SPI_CLK*%
X78486000Y-90932000D02*
X78486000Y-92202000D01*
X75692000Y-86360000D02*
X75692000Y-88138000D01*
X75692000Y-88138000D02*
X78486000Y-90932000D01*
%TO.N,SPI_MOSI*%
X70866000Y-93726000D02*
X70866000Y-92202000D01*
X74168000Y-97028000D02*
X70866000Y-93726000D01*
X74168000Y-106934000D02*
X74168000Y-97028000D01*
%TO.N,SPI_MISO*%
X83566000Y-103378000D02*
X83566000Y-102616000D01*
X78994000Y-103378000D02*
X83566000Y-103378000D01*
X83566000Y-103124000D02*
X83566000Y-102616000D01*
X85344000Y-104902000D02*
X83566000Y-103124000D01*
X88900000Y-104902000D02*
X85344000Y-104902000D01*
%TO.N,/SS*%
X68326000Y-106426000D02*
X68326000Y-92202000D01*
X68580000Y-106680000D02*
X68326000Y-106426000D01*
D28*
%TO.N,+5V*%
X58986000Y-106622000D02*
X59944000Y-106622000D01*
X57658000Y-107950000D02*
X58986000Y-106622000D01*
X52832000Y-142494000D02*
X53848000Y-141478000D01*
X51222000Y-142494000D02*
X52832000Y-142494000D01*
X53848000Y-141478000D02*
X53848000Y-132334000D01*
X53848000Y-132334000D02*
X57658000Y-128524000D01*
X57658000Y-128524000D02*
X57658000Y-107950000D01*
D30*
%TO.N,+12V*%
X42418000Y-136935000D02*
X42897000Y-137414000D01*
X42897000Y-137414000D02*
X51222000Y-137414000D01*
D29*
%TO.N,SPI_MOSI*%
X73152000Y-88138000D02*
X70866000Y-90424000D01*
X73152000Y-86360000D02*
X73152000Y-88138000D01*
X70866000Y-90424000D02*
X70866000Y-92202000D01*
%TO.N,SPI_MISO*%
X83566000Y-101854000D02*
X83566000Y-92202000D01*
X83566000Y-102616000D02*
X83566000Y-101854000D01*
%TO.N,Net-(R1-Pad1)*%
X43260000Y-123016000D02*
X43260000Y-126463000D01*
X43180000Y-122936000D02*
X43260000Y-123016000D01*
%TO.N,Net-(IC1-Pad17)*%
X61780000Y-109162000D02*
X64008000Y-106934000D01*
X59944000Y-109162000D02*
X61780000Y-109162000D01*
%TO.N,Net-(IC1-Pad10)*%
X63725000Y-126942000D02*
X63754000Y-126971000D01*
X59944000Y-126942000D02*
X63725000Y-126942000D01*
%TO.N,Net-(IC1-Pad11)*%
X59973000Y-124431000D02*
X59944000Y-124402000D01*
X63754000Y-124431000D02*
X59973000Y-124431000D01*
%TO.N,Net-(IC1-Pad12)*%
X59944000Y-121862000D02*
X63725000Y-121862000D01*
X63725000Y-121862000D02*
X63754000Y-121891000D01*
%TO.N,SPI_CLK*%
X60399000Y-118867000D02*
X59944000Y-119322000D01*
X68326000Y-118867000D02*
X60399000Y-118867000D01*
%TO.N,SPI_MISO*%
X67871000Y-114242000D02*
X68326000Y-113787000D01*
X59944000Y-114242000D02*
X67871000Y-114242000D01*
%TO.N,SPI_SS*%
X67871000Y-111702000D02*
X68326000Y-111247000D01*
X59944000Y-111702000D02*
X67871000Y-111702000D01*
%TO.N,/SS*%
X68326000Y-88646000D02*
X70612000Y-86360000D01*
X68326000Y-92202000D02*
X68326000Y-88646000D01*
X61976000Y-87630000D02*
X66548000Y-92202000D01*
X56134000Y-87630000D02*
X61976000Y-87630000D01*
X66548000Y-92202000D02*
X68326000Y-92202000D01*
X53340000Y-90424000D02*
X56134000Y-87630000D01*
D28*
%TO.N,+5V*%
X59929000Y-103070000D02*
X59904000Y-103095000D01*
X59929000Y-99060000D02*
X59929000Y-103070000D01*
X59944000Y-103135000D02*
X59904000Y-103095000D01*
X59944000Y-106622000D02*
X59944000Y-103135000D01*
D30*
%TO.N,+12V*%
X51268000Y-137368000D02*
X51222000Y-137414000D01*
X51268000Y-132080000D02*
X51268000Y-137368000D01*
D28*
%TO.N,+5V*%
X51014000Y-142702000D02*
X51222000Y-142494000D01*
X51014000Y-147066000D02*
X51014000Y-142702000D01*
D30*
%TO.N,Net-(IC1-Pad1)*%
X42418000Y-102362000D02*
X47746000Y-102362000D01*
X47746000Y-102362000D02*
X52006000Y-106622000D01*
%TD*%
%TA.AperFunction,Conductor*%
%TO.N,GND*%
G36*
X93363621Y-132862002D02*
G01*
X93410114Y-132915658D01*
X93421500Y-132968000D01*
X93421500Y-148921500D01*
X93401498Y-148989621D01*
X93347842Y-149036114D01*
X93295500Y-149047500D01*
X55752000Y-149047500D01*
X55683879Y-149027498D01*
X55637386Y-148973842D01*
X55626000Y-148921500D01*
X55626000Y-139954000D01*
X65618654Y-139954000D01*
X65638017Y-140249426D01*
X65695776Y-140539797D01*
X65790941Y-140820145D01*
X65921885Y-141085673D01*
X66086367Y-141331838D01*
X66089081Y-141334932D01*
X66089085Y-141334938D01*
X66278864Y-141551338D01*
X66281573Y-141554427D01*
X66284662Y-141557136D01*
X66501062Y-141746915D01*
X66501068Y-141746919D01*
X66504162Y-141749633D01*
X66507588Y-141751922D01*
X66507593Y-141751926D01*
X66691405Y-141874744D01*
X66750327Y-141914115D01*
X66754026Y-141915939D01*
X66754031Y-141915942D01*
X66890313Y-141983148D01*
X67015855Y-142045059D01*
X67019760Y-142046384D01*
X67019761Y-142046385D01*
X67292290Y-142138896D01*
X67292294Y-142138897D01*
X67296203Y-142140224D01*
X67300247Y-142141028D01*
X67300253Y-142141030D01*
X67582535Y-142197180D01*
X67582541Y-142197181D01*
X67586574Y-142197983D01*
X67590679Y-142198252D01*
X67590686Y-142198253D01*
X67877881Y-142217076D01*
X67882000Y-142217346D01*
X67886119Y-142217076D01*
X68173314Y-142198253D01*
X68173321Y-142198252D01*
X68177426Y-142197983D01*
X68181459Y-142197181D01*
X68181465Y-142197180D01*
X68463747Y-142141030D01*
X68463753Y-142141028D01*
X68467797Y-142140224D01*
X68471706Y-142138897D01*
X68471710Y-142138896D01*
X68744239Y-142046385D01*
X68744240Y-142046384D01*
X68748145Y-142045059D01*
X68873687Y-141983148D01*
X69009969Y-141915942D01*
X69009974Y-141915939D01*
X69013673Y-141914115D01*
X69072595Y-141874744D01*
X69256407Y-141751926D01*
X69256412Y-141751922D01*
X69259838Y-141749633D01*
X69262932Y-141746919D01*
X69262938Y-141746915D01*
X69479338Y-141557136D01*
X69482427Y-141554427D01*
X69485136Y-141551338D01*
X69674915Y-141334938D01*
X69674919Y-141334932D01*
X69677633Y-141331838D01*
X69842115Y-141085673D01*
X69973059Y-140820145D01*
X70068224Y-140539797D01*
X70125983Y-140249426D01*
X70145346Y-139954000D01*
X70125983Y-139658574D01*
X70068224Y-139368203D01*
X69973059Y-139087855D01*
X69842115Y-138822327D01*
X69677633Y-138576162D01*
X69674919Y-138573068D01*
X69674915Y-138573062D01*
X69485136Y-138356662D01*
X69482427Y-138353573D01*
X69479338Y-138350864D01*
X69262938Y-138161085D01*
X69262932Y-138161081D01*
X69259838Y-138158367D01*
X69256412Y-138156078D01*
X69256407Y-138156074D01*
X69017106Y-137996179D01*
X69013673Y-137993885D01*
X69009974Y-137992061D01*
X69009969Y-137992058D01*
X68873687Y-137924852D01*
X68748145Y-137862941D01*
X68744239Y-137861615D01*
X68471710Y-137769104D01*
X68471706Y-137769103D01*
X68467797Y-137767776D01*
X68463753Y-137766972D01*
X68463747Y-137766970D01*
X68181465Y-137710820D01*
X68181459Y-137710819D01*
X68177426Y-137710017D01*
X68173321Y-137709748D01*
X68173314Y-137709747D01*
X67886119Y-137690924D01*
X67882000Y-137690654D01*
X67877881Y-137690924D01*
X67590686Y-137709747D01*
X67590679Y-137709748D01*
X67586574Y-137710017D01*
X67582541Y-137710819D01*
X67582535Y-137710820D01*
X67300253Y-137766970D01*
X67300247Y-137766972D01*
X67296203Y-137767776D01*
X67292294Y-137769103D01*
X67292290Y-137769104D01*
X67019761Y-137861615D01*
X67015855Y-137862941D01*
X66890313Y-137924852D01*
X66754031Y-137992058D01*
X66754026Y-137992061D01*
X66750327Y-137993885D01*
X66746894Y-137996179D01*
X66507593Y-138156074D01*
X66507588Y-138156078D01*
X66504162Y-138158367D01*
X66501068Y-138161081D01*
X66501062Y-138161085D01*
X66284662Y-138350864D01*
X66281573Y-138353573D01*
X66278864Y-138356662D01*
X66089085Y-138573062D01*
X66089081Y-138573068D01*
X66086367Y-138576162D01*
X65921885Y-138822327D01*
X65790941Y-139087855D01*
X65695776Y-139368203D01*
X65638017Y-139658574D01*
X65618654Y-139954000D01*
X55626000Y-139954000D01*
X55626000Y-132968000D01*
X55646002Y-132899879D01*
X55699658Y-132853386D01*
X55752000Y-132842000D01*
X93295500Y-132842000D01*
X93363621Y-132862002D01*
G37*
%TD.AperFunction*%
%TD*%
M02*
