M48
; DRILL file {KiCad (6.0.4)} date Mon Jul 11 12:49:32 2022
; FORMAT={-:-/ absolute / metric / decimal}
; #@! TF.CreationDate,2022-07-11T12:49:32+03:00
; #@! TF.GenerationSoftware,Kicad,Pcbnew,(6.0.4)
; #@! TF.FileFunction,Plated,1,2,PTH
FMAT,2
METRIC
; #@! TA.AperFunction,Plated,PTH,ViaDrill
T1C0.600
; #@! TA.AperFunction,Plated,PTH,ComponentDrill
T2C0.700
; #@! TA.AperFunction,Plated,PTH,ComponentDrill
T3C0.759
; #@! TA.AperFunction,Plated,PTH,ComponentDrill
T4C0.800
; #@! TA.AperFunction,Plated,PTH,ComponentDrill
T5C1.000
; #@! TA.AperFunction,Plated,PTH,ViaDrill
T6C1.100
; #@! TA.AperFunction,Plated,PTH,ComponentDrill
T7C1.100
; #@! TA.AperFunction,Plated,PTH,ComponentDrill
T8C1.320
%
G90
G05
T1
X55.118Y-111.76
X68.58Y-106.68
X84.836Y-119.126
X91.44Y-133.858
T2
X43.18Y-122.936
X48.26Y-122.936
X53.34Y-90.424
X53.34Y-93.472
X58.42Y-90.424
X58.42Y-93.472
X73.914Y-118.364
X73.914Y-121.412
X73.914Y-124.46
X73.914Y-127.508
X73.914Y-131.064
X74.168Y-106.934
X76.2Y-111.76
X76.2Y-114.808
X78.994Y-118.364
X78.994Y-121.412
X78.994Y-124.46
X78.994Y-127.508
X78.994Y-131.064
X79.248Y-106.934
X81.28Y-111.76
X81.28Y-114.808
X84.328Y-109.728
X84.328Y-114.808
T3
X52.006Y-106.622
X52.006Y-109.162
X52.006Y-111.702
X52.006Y-114.242
X52.006Y-116.782
X52.006Y-119.322
X52.006Y-121.862
X52.006Y-124.402
X52.006Y-126.942
X59.944Y-106.622
X59.944Y-109.162
X59.944Y-111.702
X59.944Y-114.242
X59.944Y-116.782
X59.944Y-119.322
X59.944Y-121.862
X59.944Y-124.402
X59.944Y-126.942
T4
X46.014Y-147.066
X46.268Y-132.08
X51.014Y-147.066
X51.268Y-132.08
X54.904Y-103.095
X59.904Y-103.095
T5
X42.418Y-117.602
X43.26Y-126.463
X45.76Y-126.463
X47.752Y-114.3
X47.752Y-116.84
X47.752Y-119.38
X48.26Y-126.463
X59.929Y-99.06
X62.469Y-99.06
X63.754Y-121.891
X63.754Y-124.431
X63.754Y-126.971
X64.008Y-106.934
X65.009Y-99.06
X67.813Y-125.476
X68.326Y-92.202
X68.326Y-111.247
X68.326Y-113.787
X68.326Y-116.327
X68.326Y-118.867
X68.326Y-121.407
X70.353Y-125.476
X70.612Y-86.36
X70.866Y-92.202
X71.374Y-98.806
X73.152Y-86.36
X73.406Y-92.202
X75.692Y-86.36
X75.946Y-92.202
X78.232Y-86.36
X78.486Y-92.202
X80.772Y-86.36
X81.026Y-92.202
X82.804Y-130.556
X83.566Y-92.202
X88.9Y-99.822
X88.9Y-102.362
X88.9Y-104.902
X88.9Y-107.442
X88.9Y-109.982
X88.9Y-112.522
T6
X71.374Y-103.378
X78.994Y-103.378
T7
X51.222Y-137.414
X51.222Y-139.954
X51.222Y-142.494
T8
X42.418Y-102.362
X42.418Y-107.362
X42.418Y-136.935
X42.418Y-141.935
T0
M30
